<svg xmlns="http://www.w3.org/2000/svg" version="1.1" xmlns:xlink="http://www.w3.org/1999/xlink" xmlns:svgjs="http://svgjs.dev/svgjs" width="100%" height="100%" viewBox="0 0 1000 600"><rect width="1000" height="600" x="0" y="0" fill="#000000"/><g><rect width="333.3333333333333" height="333.3333333333333" rx="13.333333333333334" ry="13.333333333333334" y="183.0056173971007" fill="#ffffff" transform="matrix(0.7774436109729513,0,0,0.777443610972951,0,28.14952912485343)" x="160.78344726562497"/><path d="M248.31534473247186 424.67228746281484L248.31534473247186 274.672292282302L327.651100223237 274.672292282302Q344.4198592556679 274.672292282302 356.99642852999114 277.4862278733606Q369.54428417583426 280.3288770928994 377.9860909490101 285.5260438478138Q386.3991840937058 290.7232106027282 390.6488011087739 298.0451858651767Q394.898418123842 305.36716112762514 394.898418123842 314.3258132134445L394.898418123842 314.3258132134445Q394.898418123842 323.313178927744 389.90224676828893 331.23814038827635Q384.90607541273585 339.1631018488088 375.3157235003524 344.9345411733271L375.3157235003524 344.9345411733271Q391.05079190749655 349.47129447319713 398.8321852256281 358.2576647881353Q406.58486491527935 367.04403510307344 406.58486491527935 379.76417251979757L406.58486491527935 379.76417251979757Q406.58486491527935 388.435688320815 402.42138878565186 396.5042179237484Q398.22919902754404 404.5727475266818 389.90224676828893 410.8323185353632Q381.5752945090338 417.0918895440447 369.056152491671 420.88208850342977Q356.5370104743081 424.67228746281484 339.76825144187717 424.67228746281484L339.76825144187717 424.67228746281484L248.31534473247186 424.67228746281484ZM306.66143780421805 335.6313255457455L312.92100881289946 335.6313255457455Q321.19053381519416 335.6313255457455 326.8471186257916 334.08078960781523Q332.50370343638906 332.5015400414048 335.8919115970515 329.7737453357867Q339.2801197577139 327.04595063016865 340.74451481020355 323.5141743271053Q342.2089098626933 319.98239802404186 342.2089098626933 316.1634854361766L342.2089098626933 316.1634854361766Q342.2089098626933 312.3158592198311 340.74451481020355 308.7840829167678Q339.2801197577139 305.2523066137044 335.8919115970515 302.5819391650467Q332.50370343638906 299.91157171638906 326.8471186257916 298.2748948930182Q321.19053381519416 296.66693169812754 312.92100881289946 296.66693169812754L312.92100881289946 296.66693169812754L306.77629231813876 296.66693169812754L306.66143780421805 335.6313255457455ZM306.66143780421805 402.6776480469893L312.92100881289946 402.6776480469893Q321.90837452719893 402.6776480469893 328.05309102195963 400.7538349388165Q334.2265211452004 398.83002183064383 338.0454337330657 395.4992409269417Q341.89305994941117 392.1684600232397 343.61587765822264 387.68913398033004Q345.3099817385538 383.1810943089402 345.3099817385538 378.0413548109862L345.3099817385538 378.0413548109862Q345.3099817385538 373.50460151111616 343.5010231443018 369.14012998212723Q341.69206455004985 364.8043720816186 338.1028609900261 361.4161639209562Q334.51365743000235 358.05666938877386 329.28777704660774 355.98928813820027Q324.03318303473304 353.92190688762656 317.17062582796757 353.92190688762656L317.17062582796757 353.92190688762656L306.66143780421805 353.92190688762656L306.66143780421805 402.6776480469893Z " fill="#000000" transform="matrix(0.7774436109729513,0,0,0.777443610972951,0,28.14952912485343)"/><path d="M577.4501106054342 424.67230460010074L577.4501106054342 274.67227516748363L1125.483501043816 274.67227516748363L1125.483501043816 424.67230460010074L577.4501106054342 424.67230460010074Z " fill="#ffffff" transform="matrix(0.7774436109729513,0,0,0.777443610972951,0,28.14952912485343)"/></g></svg>